Coordinates
version=1
nRows=24
nColumns=38
inDegrees=no

Units are S.I. units (second, meters, Newtons, ...)
If the header above contains a line with 'inDegrees', this indicates whether rotational values are in degrees (yes) or radians (no).

endheader
time	pelvis_tilt	pelvis_list	pelvis_rotation	pelvis_tx	pelvis_ty	pelvis_tz	hip_flexion_r	hip_adduction_r	hip_rotation_r	knee_angle_r	ankle_angle_r	subtalar_angle_r	mtp_angle_r	hip_flexion_l	hip_adduction_l	hip_rotation_l	knee_angle_l	ankle_angle_l	subtalar_angle_l	mtp_angle_l	lumbar_extension	lumbar_bending	lumbar_rotation	arm_flex_r	arm_add_r	arm_rot_r	elbow_flex_r	pro_sup_r	wrist_flex_r	wrist_dev_r	arm_flex_l	arm_add_l	arm_rot_l	elbow_flex_l	pro_sup_l	wrist_flex_l	wrist_dev_l
0	1.90031	1.44816	-0.397054	0.722379	-0.805273	0.950358	-0.0893928	0.232654	0.698132	0.133807	0.523599	0	0	0.190124	-0.301181	-0.187218	1.14849	-0.351201	0	0	-0.201876	0.1503	0.0956207	0.0992198	-0.325124	1.02044	0.378061	0.663148	0	0	-0.0381748	-0.205396	0.0545372	0.518182	1.5708	0	0
0.01	2.16647	1.44907	-0.66187	0.72389	-0.797373	0.955912	-0.138247	0.209171	0.698132	0.103449	0.523599	0	0	0.184031	-0.29884	-0.205365	1.14896	-0.429169	0	0	-0.236598	0.12709	0.0990765	0.104705	-0.313296	1.01542	0.366348	0.664615	0	0	-0.0259784	-0.211413	0.0604527	0.517918	1.5708	0	0
0.02	2.01492	1.44868	-0.508651	0.725231	-0.790876	0.954358	-0.118035	0.229587	0.698132	0.127186	0.523599	0	0	0.256306	-0.285573	-0.119103	1.21372	-0.269257	0	0	-0.224654	0.137136	0.0990402	0.109462	-0.312411	1.01256	0.36504	0.667495	0	0	-0.0229804	-0.211255	0.0641171	0.518937	1.5708	0	0
0.03	2.11986	1.4627	-0.637208	0.726372	-0.780766	0.95584	-0.139966	0.199159	0.698132	0.102283	0.523599	0	0	0.248479	-0.281344	-0.165401	1.21536	-0.210881	0	0	-0.225985	0.116877	0.121717	0.105055	-0.317597	1.01306	0.363569	0.66359	0	0	-0.0269771	-0.202688	0.0632808	0.518571	1.5708	0	0
0.04	1.91536	1.45664	-0.438668	0.727469	-0.77151	0.953165	-0.135709	0.214303	0.698132	0.0896619	0.523599	0	0	0.317106	-0.272703	-0.0938463	1.25168	-0.188346	0	0	-0.204795	0.135632	0.131017	0.0983769	-0.324852	1.01334	0.369057	0.661569	0	0	-0.032537	-0.197505	0.0634158	0.520693	1.5708	0	0
0.05	1.73574	1.45086	-0.286479	0.728009	-0.759291	0.949734	-0.124133	0.226208	0.644473	0.0993418	0.523599	0	0	0.301595	-0.272053	-0.0969961	1.20927	-0.0814126	0	0	-0.1753	0.154724	0.157279	0.0827591	-0.343968	1.01259	0.379298	0.66097	0	0	-0.0525825	-0.18305	0.0628273	0.523514	1.5708	0	0
0.06	1.91656	1.45175	-0.455963	0.729046	-0.753364	0.953707	-0.167981	0.208562	0.695329	0.0566079	0.523599	0	0	0.364827	-0.266239	-0.0593307	1.27121	-0.13848	0	0	-0.205292	0.140845	0.150696	0.0949074	-0.334439	1.01411	0.373794	0.656409	0	0	-0.0316243	-0.190253	0.068607	0.517801	1.5708	0	0
0.07	2.11626	1.46965	-0.686858	0.73103	-0.743936	0.956256	-0.172181	0.183052	0.592484	0.0814056	0.523599	0	0	0.363947	-0.24122	-0.0930831	1.25085	-0.246025	0	0	-0.215587	0.110496	0.179634	0.0940102	-0.338894	1.01189	0.370224	0.654206	0	0	-0.0317513	-0.183658	0.0704251	0.513238	1.5708	0	0
0.08	2.19227	1.47323	-0.760232	0.731451	-0.736496	0.957189	-0.175235	0.178368	0.546907	0.090384	0.523599	0	0	0.378577	-0.240728	-0.104143	1.23433	-0.230554	0	0	-0.223098	0.101143	0.179693	0.0974338	-0.338728	1.00875	0.371145	0.652893	0	0	-0.0196068	-0.18461	0.0742647	0.507372	1.5708	0	0
0.09	2.32623	1.47737	-0.914023	0.73268	-0.727364	0.958292	-0.179296	0.164698	0.474183	0.105478	0.523599	0	0	0.372009	-0.226921	-0.119687	1.20783	-0.196556	0	0	-0.228261	0.0874557	0.199254	0.0956946	-0.344347	1.00466	0.371149	0.652857	0	0	-0.0190674	-0.179655	0.0771542	0.502426	1.5708	0	0
0.1	2.3652	1.48074	-0.948209	0.732898	-0.720326	0.958534	-0.182833	0.160332	0.448272	0.103367	0.523599	0	0	0.402766	-0.229538	-0.126192	1.20119	-0.196764	0	0	-0.232591	0.0812421	0.196934	0.099885	-0.344438	1.0015	0.372409	0.653516	0	0	-0.00727036	-0.181506	0.0846269	0.49637	1.5708	0	0
0.11	2.39095	1.4768	-0.979501	0.734408	-0.711941	0.958913	-0.202023	0.157366	0.461382	0.0871269	0.523599	0	0	0.403624	-0.2278	-0.126198	1.16731	-0.16723	0	0	-0.239601	0.079367	0.204215	0.0986029	-0.337983	0.947256	0.361742	0.729606	0	0	-0.00164661	-0.184779	0.102506	0.493823	1.5708	0	0
0.12	2.57206	1.48234	-1.16826	0.734338	-0.703622	0.959607	-0.208649	0.135776	0.392017	0.0838814	0.523599	0	0	0.41805	-0.224644	-0.164153	1.15193	-0.17632	0	0	-0.244123	0.0612907	0.211566	0.0996269	-0.342739	0.950867	0.363482	0.719684	0	0	0.00254787	-0.18156	0.103832	0.491317	1.5708	0	0
0.13	2.67378	1.48139	-1.27548	0.735025	-0.695319	0.960015	-0.215441	0.125975	0.346448	0.085964	0.523599	0	0	0.420854	-0.226047	-0.192207	1.11965	-0.166734	0	0	-0.250283	0.0514441	0.21595	0.102991	-0.345326	0.954654	0.365299	0.711141	0	0	0.00561159	-0.18137	0.106638	0.490458	1.5708	0	0
0.14	2.79039	1.48032	-1.39993	0.735895	-0.686755	0.96028	-0.221209	0.112451	0.280974	0.0862509	0.523599	0	0	0.419501	-0.220987	-0.218479	1.08164	-0.155302	0	0	-0.254822	0.0406985	0.221972	0.105918	-0.349593	0.958338	0.36633	0.703981	0	0	0.00506386	-0.179218	0.109801	0.490244	1.5708	0	0
0.15	2.79977	1.48159	-1.40815	0.73635	-0.678033	0.959263	-0.228835	0.110223	0.265987	0.0785727	0.523599	0	0	0.434246	-0.217499	-0.210472	1.07137	-0.0374555	0	0	-0.254389	0.0390389	0.220672	0.106711	-0.352551	0.962906	0.371784	0.698596	0	0	0.00555221	-0.18025	0.112612	0.492695	1.5708	0	0
0.16	2.64981	1.49301	-1.25599	0.737028	-0.670936	0.956612	-0.216835	0.121427	0.219563	0.0727156	0.517499	0	0	0.475867	-0.229471	-0.209401	1.06153	-0.0292217	0	0	-0.243002	0.0486889	0.22086	0.111117	-0.354819	0.958494	0.371408	0.706648	0	0	0.00529496	-0.180293	0.12083	0.497771	1.5708	0	0
0.17	2.89593	1.41581	-1.53587	0.741435	-0.665073	0.967882	-0.316058	0.0967235	0.228443	0.0509509	0.427026	0	0	0.344291	-0.212422	-0.253521	0.94862	-0.0183637	0	0	-0.345369	0.0199478	0.251061	0.135775	-0.354776	0.958771	0.366174	0.713357	0	0	0.0277614	-0.177489	0.122653	0.494834	1.5708	0	0
0.18	3.08318	1.4548	-1.69881	0.738138	-0.653898	0.962683	-0.294054	0.0708252	0.183637	0.0194651	0.351467	0	0	0.383728	-0.171081	-0.262872	0.863052	-0.0988383	0	0	-0.295816	0.00448502	0.222191	0.125287	-0.348017	0.949223	0.357911	0.72268	0	0	0.0167631	-0.177503	0.119938	0.491892	1.5708	0	0
0.19	3.09711	1.45365	-1.71284	0.738294	-0.645376	0.962441	-0.305578	0.0676532	0.161607	0.00187644	0.268058	0	0	0.378825	-0.164908	-0.277897	0.804726	-0.0861948	0	0	-0.299206	0.00203987	0.221604	0.128072	-0.34738	0.943379	0.355087	0.731722	0	0	0.0178261	-0.17546	0.120402	0.490238	1.5708	0	0
0.2	2.91122	1.48058	-1.51694	0.738573	-0.63805	0.958134	-0.277924	0.092679	0.127919	0	0.202232	0	0	0.421829	-0.181404	-0.270362	0.768614	-0.068824	0	0	-0.274494	0.0238514	0.216316	0.128989	-0.346979	0.935996	0.354495	0.741767	0	0	0.0169306	-0.175151	0.123943	0.490993	1.5708	0	0
0.21	-3.06352	1.43031	-1.83419	0.737964	-0.627952	0.964254	-0.323657	0.0310548	-0.0676517	0	0.196492	0	0	0.313648	-0.105904	-0.28027	0.612912	-0.0717009	0	0	-0.327798	-0.0198162	0.212671	0.139041	-0.347278	0.948923	0.354317	0.721591	0	0	0.0258196	-0.17198	0.117741	0.48137	1.5708	0	0
0.22	-3.03891	1.42809	-1.85808	0.738022	-0.619443	0.963599	-0.334451	0.0253897	-0.0712318	0	0.202529	0	0	0.296659	-0.0900809	-0.28918	0.529374	-0.0723528	0	0	-0.332056	-0.0240819	0.211131	0.143771	-0.353123	0.97746	0.361079	0.678486	0	0	0.0306997	-0.168198	0.113232	0.473483	1.5708	0	0
0.23	3.11362	1.47007	-1.71455	0.738008	-0.611806	0.957217	-0.287749	0.0556692	-0.0916294	0	0.0662327	0	0	0.352009	-0.105063	-0.26068	0.496623	-0.0540426	0	0	-0.292531	0.00321974	0.206896	0.139227	-0.351936	0.956455	0.35761	0.708122	0	0	0.0289738	-0.167222	0.117494	0.472559	1.5708	0	0
